<svg width="18" height="18" viewBox="0 0 18 18" fill="none" xmlns="http://www.w3.org/2000/svg">
<path d="M16.0304 10.8595L14.8484 9.67748C14.5769 9.38519 14.4196 9.005 14.4052 8.60632V6.27932C14.4052 3.28745 12.4106 0.738831 8.86472 0.738831C5.31881 0.738831 3.32423 3.21358 3.32423 6.27932V8.86488C3.31739 9.09869 3.22546 9.32197 3.06567 9.4928L1.69902 10.8595C1.55983 10.9958 1.48018 11.1817 1.4774 11.3766V14.036C1.4774 14.2319 1.55523 14.4198 1.69377 14.5584C1.83231 14.6969 2.02021 14.7747 2.21613 14.7747H6.31609C6.41887 15.3762 6.73109 15.922 7.19751 16.3155C7.66393 16.709 8.25449 16.9248 8.86472 16.9248C9.47495 16.9248 10.0655 16.709 10.5319 16.3155C10.9983 15.922 11.3106 15.3762 11.4133 14.7747H15.5133C15.7092 14.7747 15.8971 14.6969 16.0357 14.5584C16.1742 14.4198 16.252 14.2319 16.252 14.036V11.3766C16.2493 11.1817 16.1696 10.9958 16.0304 10.8595Z" fill="white"/>
</svg>
