<svg width="24" height="20" viewBox="0 0 24 20" fill="none" xmlns="http://www.w3.org/2000/svg">
<path d="M14.1593 13.1182L12.9915 12.8594C12.9797 12.0734 12.8114 11.3144 12.4915 10.6033L13.3948 9.87188C13.6097 9.69779 13.6428 9.38243 13.4689 9.16727L12.3365 7.76856C12.2528 7.66511 12.1316 7.59948 11.9993 7.58545C11.8678 7.57117 11.7348 7.611 11.6316 7.69441L10.7522 8.40729C10.1295 7.92962 9.43036 7.59096 8.67389 7.40059V6.28393C8.67389 6.00739 8.44946 5.78296 8.17292 5.78296H6.37369C6.09715 5.78296 5.87272 6.00739 5.87272 6.28393V7.40134C5.10122 7.59597 4.38934 7.94515 3.75687 8.43936L2.8689 7.73299C2.76495 7.65033 2.63344 7.61301 2.50018 7.62728C2.36818 7.64231 2.24744 7.70919 2.16478 7.81339L1.04461 9.22187C0.872278 9.43829 0.908348 9.75365 1.12477 9.92574L2.03703 10.6511C1.72393 11.3645 1.56236 12.1237 1.5571 12.908L0.38834 13.178C0.118818 13.2407 -0.0492577 13.5092 0.0128627 13.7787L0.417647 15.5324C0.480018 15.8021 0.74954 15.9699 1.01856 15.9078L2.22415 15.6295C2.58209 16.3013 3.06177 16.8865 3.64966 17.3687L3.10611 18.5084C2.98688 18.7581 3.09258 19.0569 3.34231 19.1762L4.96646 19.9514C5.03434 19.9837 5.10824 20 5.18213 20C5.23874 20 5.2951 19.9905 5.34945 19.9715C5.4747 19.9269 5.57714 19.8349 5.6345 19.715L6.18507 18.56C6.91724 18.701 7.67947 18.6987 8.40913 18.552L8.96922 19.7002C9.09045 19.9492 9.39128 20.0516 9.63926 19.9311L11.2564 19.1426C11.5049 19.0214 11.6083 18.7213 11.4871 18.4728L10.9345 17.3396C11.5194 16.8522 11.9943 16.2623 12.347 15.5865L13.5523 15.8537C13.8219 15.9131 14.0899 15.7433 14.1498 15.4727L14.5398 13.7158C14.5683 13.5861 14.5448 13.4501 14.4729 13.3381C14.4017 13.2259 14.289 13.1467 14.1593 13.1182ZM9.48246 12.9461C9.48246 14.1632 8.49229 15.1534 7.27493 15.1534C6.05808 15.1534 5.06791 14.1632 5.06791 12.9461C5.06791 11.729 6.05783 10.7388 7.27493 10.7388C8.49229 10.7391 9.48246 11.729 9.48246 12.9461Z" fill="#5D5D5D"/>
<path d="M15.516 8.82911C15.7029 8.82911 15.8825 8.7239 15.9687 8.5438L16.2327 7.99073C16.6901 8.07915 17.1682 8.07715 17.6231 7.98547L17.8911 8.53529C18.0121 8.78377 18.3125 8.88722 18.5612 8.76599L19.2353 8.4371C19.3547 8.37873 19.4462 8.27528 19.4895 8.14979C19.5326 8.0243 19.5243 7.88653 19.4657 7.76705L19.2019 7.22725C19.5671 6.92316 19.8647 6.55445 20.0854 6.13088L20.656 6.25712C20.925 6.31674 21.1935 6.14641 21.2537 5.87639L21.4155 5.14422C21.4751 4.87419 21.305 4.60668 21.0345 4.54681L20.4874 4.42558C20.4804 3.93412 20.375 3.45945 20.1748 3.01484L20.5939 2.67543C20.6971 2.59177 20.763 2.47054 20.7765 2.33853C20.7905 2.20653 20.7509 2.07402 20.6673 1.97082L20.1954 1.38794C20.0208 1.17277 19.7052 1.13996 19.4907 1.31405L19.0865 1.64143C18.6972 1.3426 18.2601 1.13094 17.7869 1.01196V0.500971C17.7869 0.224435 17.5625 0 17.286 0H16.536C16.2595 0 16.0351 0.224435 16.0351 0.500971V1.01196C15.5524 1.1337 15.1075 1.35212 14.7125 1.66122L14.3032 1.33609C14.0873 1.16401 13.7722 1.20008 13.5993 1.41624L13.1332 2.00363C13.0505 2.10783 13.0127 2.24034 13.0275 2.37235C13.0428 2.50435 13.1094 2.62509 13.2136 2.70775L13.6367 3.04465C13.4413 3.49026 13.3401 3.96543 13.3368 4.45638L12.7888 4.58288C12.659 4.61269 12.547 4.69284 12.4767 4.80556C12.4063 4.91828 12.3835 5.05429 12.4135 5.18379L12.5826 5.91471C12.645 6.18423 12.914 6.35231 13.1833 6.28994L13.7541 6.15793C13.9778 6.57774 14.2776 6.9437 14.6459 7.24579L14.3866 7.78934C14.3292 7.90932 14.3222 8.04684 14.3666 8.17208C14.4112 8.29733 14.5033 8.40003 14.6231 8.45714L15.2999 8.78001C15.3703 8.81308 15.4437 8.82911 15.516 8.82911ZM15.5328 4.47968C15.5328 3.71845 16.1523 3.09951 16.9135 3.09951C17.6745 3.09951 18.2937 3.71871 18.2937 4.47968C18.2937 5.2409 17.6745 5.8601 16.9135 5.8601C16.152 5.8601 15.5328 5.2409 15.5328 4.47968Z" fill="#5D5D5D"/>
<path d="M23.4912 14.1184L22.9447 13.9974C22.9376 13.5062 22.8322 13.0315 22.6315 12.5866L23.0511 12.2472C23.1543 12.1636 23.2202 12.0423 23.234 11.9101C23.2477 11.7778 23.2082 11.6453 23.1245 11.5424L22.6523 10.9595C22.4782 10.7443 22.1624 10.7115 21.9477 10.8856L21.5437 11.213C21.1539 10.9142 20.7171 10.7025 20.2442 10.5835V10.0728C20.2442 9.79624 20.0197 9.57181 19.7432 9.57181H18.9932C18.7167 9.57181 18.4923 9.79624 18.4923 10.0728V10.584C18.0091 10.7055 17.564 10.9242 17.1695 11.2333L16.7604 10.9081C16.6565 10.8252 16.5255 10.7874 16.3917 10.8024C16.2597 10.8177 16.139 10.8841 16.0563 10.9883L15.5897 11.5752C15.4173 11.7916 15.4534 12.107 15.6698 12.2796L16.0934 12.6162C15.8975 13.0633 15.7961 13.5382 15.793 14.0282L15.245 14.1547C15.1155 14.1847 15.0033 14.2644 14.9329 14.3776C14.8627 14.4901 14.8397 14.6261 14.8698 14.7559L15.0388 15.4868C15.1012 15.7563 15.3712 15.9236 15.6392 15.862L16.2106 15.7302C16.4343 16.1503 16.7341 16.5163 17.1018 16.8181L16.8428 17.3612C16.7855 17.4811 16.7782 17.6189 16.8225 17.7441C16.8674 17.8694 16.9593 17.9718 17.079 18.0292L17.7558 18.3521C17.8252 18.3851 17.8989 18.4009 17.971 18.4009C18.1579 18.4009 18.3377 18.2957 18.4236 18.1154L18.6877 17.5625C19.1455 17.651 19.6242 17.6495 20.0783 17.5573L20.3466 18.1066C20.4679 18.3551 20.7679 18.4588 21.0167 18.3375L21.6905 18.0089C21.81 17.9508 21.9014 17.8473 21.9445 17.7218C21.9878 17.5964 21.9798 17.4586 21.9212 17.3391L21.6577 16.7993C22.0231 16.495 22.3202 16.126 22.5404 15.7029L23.111 15.8297C23.2412 15.8585 23.3767 15.8347 23.4887 15.7628C23.6007 15.6914 23.6798 15.5787 23.7086 15.4487L23.8707 14.7165C23.9321 14.4458 23.7615 14.1785 23.4912 14.1184ZM20.7499 14.0515C20.7499 14.8127 20.1307 15.4319 19.37 15.4319C18.609 15.4319 17.9893 14.8127 17.9893 14.0515C17.9893 13.2903 18.609 12.6711 19.37 12.6711C20.1307 12.6713 20.7499 13.2905 20.7499 14.0515Z" fill="#5D5D5D"/>
</svg>
