<svg width="14" height="15" viewBox="0 0 14 15" fill="none" xmlns="http://www.w3.org/2000/svg">
<path d="M1.51043 1.74272L1.49149 1.66699H1.41342H0.636902C0.340302 1.66699 0.1 1.42677 0.1 1.13063C0.1 0.834484 0.340302 0.594263 0.636902 0.594263H1.41342C1.95211 0.594263 2.42157 0.96056 2.55219 1.48258L2.94788 3.06399L2.96683 3.13972H3.04489H12.1783C13.122 3.13972 13.964 3.88816 13.8961 4.90631C13.8445 5.68063 13.6968 6.73574 13.2775 7.61403C12.8497 8.51028 12.0895 9.30335 10.8273 9.30335H4.63714H4.50904L4.54013 9.42763L4.85858 10.7004L4.87753 10.7761H4.95559H10.8273C11.8275 10.7761 12.638 11.5861 12.638 12.5852C12.638 13.5843 11.8275 14.3943 10.8273 14.3943C9.8272 14.3943 9.01662 13.5843 9.01662 12.5852C9.01662 12.3736 9.05297 12.1707 9.11962 11.9821L9.16677 11.8488H9.02534H6.2603H6.11888L6.16602 11.9821C6.23267 12.1707 6.26902 12.3736 6.26902 12.5852C6.26902 13.5843 5.45842 14.3943 4.45831 14.3943C3.45821 14.3943 2.64761 13.5843 2.64761 12.5852C2.64761 11.8474 3.08966 11.2125 3.72405 10.931L3.80091 10.8969L3.7805 10.8153L1.51043 1.74272ZM4.22168 8.1549L4.24063 8.23063H4.31869H10.8273C11.1726 8.23063 11.4637 8.13282 11.7096 7.94527C11.9537 7.75907 12.1477 7.48879 12.3083 7.15228L12.2233 7.1117L12.3083 7.15228C12.6394 6.45853 12.776 5.56547 12.8247 4.83504C12.846 4.5159 12.584 4.21244 12.1783 4.21244H3.36334H3.23523L3.26633 4.33672L4.22168 8.1549ZM10.0944 12.5852C10.0944 12.9898 10.4226 13.3176 10.8273 13.3176C11.2321 13.3176 11.5603 12.9898 11.5603 12.5852C11.5603 12.1806 11.2321 11.8528 10.8273 11.8528C10.4226 11.8528 10.0944 12.1806 10.0944 12.5852ZM3.72534 12.5852C3.72534 12.9898 4.05359 13.3176 4.45831 13.3176C4.86304 13.3176 5.19128 12.9898 5.19128 12.5852C5.19128 12.1806 4.86304 11.8528 4.45831 11.8528C4.05359 11.8528 3.72534 12.1806 3.72534 12.5852Z" fill="white" stroke="#202020" stroke-width="0.2"/>
</svg>
