<svg width="16" height="16" viewBox="0 0 16 16" fill="none" xmlns="http://www.w3.org/2000/svg">
<path fill-rule="evenodd" clip-rule="evenodd" d="M0.989919 5.69204C0.989919 3.09548 3.34246 0.989919 6.43448 0.989919C8.89591 0.989919 11.3841 3.09548 11.3841 5.69204C11.3841 8.28909 9.44136 10.3942 6.43448 10.3942C5.99248 10.3942 5.07036 10.3437 4.65905 10.258L2.96976 11.3841V9.62993C1.76255 8.65041 0.989919 7.34223 0.989919 5.69204ZM4.76992 11.2534C5.15451 11.3163 6.0291 11.3841 6.43448 11.3841C9.98829 11.3841 12.374 8.7395 12.374 5.63017C12.374 2.52083 9.39285 0 6.43448 0C2.87621 0 0 2.52083 0 5.63017C0 7.43182 0.686509 8.96076 1.97984 10.062V12.869L4.76992 11.2534ZM13.3387 4.52344C13.3481 4.665 13.3639 4.80556 13.3639 4.9496C13.3639 5.26439 13.3332 5.57275 13.2892 5.87715C13.9554 6.6572 14.3538 7.61842 14.3538 8.66179C14.3538 10.312 13.3679 11.7607 11.879 12.5997V14.3538L10.1897 13.2278C9.77843 13.3134 9.35127 13.3639 8.90927 13.3639C7.62733 13.3639 6.94626 12.9788 6.01574 12.3388C5.74598 12.3606 5.47376 12.374 5.19708 12.374C5.00008 12.374 4.80705 12.3601 4.61303 12.3488C5.79153 13.5005 7.00318 14.2301 8.90927 14.2301C9.31465 14.2301 9.71011 14.1935 10.0947 14.1306L12.869 15.8387V13.0318C14.3736 12.0008 15.3438 10.4016 15.3438 8.59992C15.3438 6.99428 14.5711 5.549 13.3387 4.52344ZM9.15675 6.43448C9.56708 6.43448 9.89919 6.10236 9.89919 5.69204C9.89919 5.28221 9.56708 4.9496 9.15675 4.9496C8.74643 4.9496 8.41431 5.28221 8.41431 5.69204C8.41431 6.10236 8.74643 6.43448 9.15675 6.43448ZM3.21724 6.43448C3.62756 6.43448 3.95968 6.10236 3.95968 5.69204C3.95968 5.28221 3.62756 4.9496 3.21724 4.9496C2.80692 4.9496 2.4748 5.28221 2.4748 5.69204C2.4748 6.10236 2.80692 6.43448 3.21724 6.43448ZM6.187 6.43448C6.59732 6.43448 6.92944 6.10236 6.92944 5.69204C6.92944 5.28221 6.59732 4.9496 6.187 4.9496C5.77667 4.9496 5.44456 5.28221 5.44456 5.69204C5.44456 6.10236 5.77667 6.43448 6.187 6.43448Z" fill="white"/>
</svg>
