<svg width="15" height="11" viewBox="0 0 15 11" fill="none" xmlns="http://www.w3.org/2000/svg">
    <path
        d="M14.9 1.15147V1.15228V9.61884C14.9 10.192 14.3942 10.6715 13.7491 10.6715H1.25086C0.605752 10.6715 0.1 10.192 0.1 9.61884V1.15228C0.1 0.579153 0.605753 0.0996338 1.25086 0.0996338H13.7543C14.3996 0.0996338 14.9046 0.579166 14.9 1.15147ZM1.13198 5.28556H1.03198V5.38556V9.47411C1.03198 9.61131 1.14848 9.71884 1.28704 9.71884H13.7181C13.8493 9.71884 13.9732 9.61341 13.9732 9.47411V5.38556V5.28556H13.8732H1.13198ZM1.03198 2.30493V2.40493H1.13198H13.768H13.868H13.8732V2.30493H13.968V1.29701C13.968 1.15982 13.8515 1.05228 13.7129 1.05228H1.28704C1.15588 1.05228 1.03198 1.15772 1.03198 1.29701V2.30493Z"
        fill="white" stroke="#202020" stroke-width="0.2" />
    <path d="M2.3124 8.55759V7.73416H4.72783V8.55759H2.3124Z" fill="white" stroke="#202020" stroke-width="0.2" />
    <path d="M5.94607 8.55759V7.73416H9.52966V8.55759H5.94607Z" fill="white" stroke="#202020" stroke-width="0.2" />
</svg>