<svg width="33" height="31" viewBox="0 0 33 31" fill="none" xmlns="http://www.w3.org/2000/svg">
<path d="M16.2874 12.8385C16.064 13.0548 15.9243 13.3236 15.8639 13.6397C15.8037 13.9615 15.8595 14.3061 16.0125 14.6888L18.2233 12.562C17.8858 12.4029 17.5418 12.3512 17.1884 12.4029C16.8356 12.4552 16.5358 12.6035 16.2874 12.8385Z" fill="white"/>
<path d="M32.4572 0.49143C32.1756 0.216951 30.7718 0.269221 29.508 0.267789L24.1219 0.259913C22.8581 0.25848 21.192 0.153104 20.4339 0.31445C20.0025 0.406222 19.5513 0.585349 19.1991 0.924271L0.958402 18.1527C0.958402 18.1527 -1.05357 19.9163 1.0291 21.9163L9.55622 30.1243C9.55622 30.1243 11.401 31.8965 13.3023 30.0683L31.4055 12.652C31.4055 12.652 32.7833 11.0511 32.7833 9.79281L32.7855 3.30615C32.7855 2.08937 32.7386 0.765789 32.4572 0.49143ZM20.7004 16.5433L18.8729 15.1918C19.275 14.6122 19.3659 14.0416 19.132 13.4734L16.6318 15.8734C17.3785 17.1239 17.7177 18.1334 17.6478 18.9153C17.5784 19.6949 17.1949 20.4202 16.5086 21.0802C15.7351 21.8255 14.8533 22.2217 13.8628 22.2841C12.8668 22.3421 11.8951 22.029 10.9497 21.3447L9.75466 22.4962L8.82706 21.604L9.98709 20.4876C9.34029 19.6928 9.02154 18.8537 9.02154 17.9666C9.02154 17.0851 9.37489 16.1743 10.0887 15.2456L11.9301 16.6767C11.6564 17.0702 11.4933 17.4786 11.433 17.8942C11.3727 18.3105 11.4032 18.6853 11.5217 19.0106L14.1976 16.4373C13.598 15.4061 13.3511 14.4724 13.445 13.6297C13.5346 12.7898 13.9283 12.0388 14.6194 11.3767C15.3173 10.7059 16.1194 10.3562 17.0353 10.3233C17.9506 10.2903 18.8079 10.5913 19.6159 11.2248L20.2484 10.6164L21.1741 11.5071L20.5417 12.1155C21.1345 12.845 21.4436 13.5831 21.4644 14.3348C21.4817 15.0857 21.2278 15.8253 20.7004 16.5433ZM29.5034 6.19343C28.7058 6.96162 27.4151 6.96162 26.6198 6.19343C25.8242 5.42955 25.8242 4.18616 26.6198 3.42012C27.4151 2.65194 28.7058 2.65194 29.5034 3.42012C30.3004 4.18616 30.3004 5.42955 29.5034 6.19343Z" fill="white"/>
<path d="M12.3573 19.9887C12.7363 20.2389 13.1437 20.3421 13.5783 20.309C14.0155 20.2755 14.3945 20.1056 14.7133 19.7967C14.9986 19.5258 15.1572 19.2077 15.1966 18.848C15.2364 18.4854 15.1174 18.0669 14.8481 17.5924L12.3573 19.9887Z" fill="white"/>
</svg>
