<svg width="12" height="17" viewBox="0 0 12 17" fill="none" xmlns="http://www.w3.org/2000/svg">
<path d="M0.750445 5.73486H0.750349C0.634933 5.73479 0.522223 5.76675 0.425557 5.82654C0.328931 5.8863 0.252624 5.97119 0.205005 6.07068C0.157411 6.17011 0.140259 6.28034 0.155286 6.38853C0.170315 6.49673 0.217009 6.59904 0.2905 6.68325L0.290507 6.68326L8.53992 16.1372L8.54009 16.1374C8.62858 16.2392 8.75128 16.309 8.88796 16.3341C9.02466 16.3591 9.16593 16.3376 9.28771 16.2737C9.40942 16.2097 9.50364 16.1076 9.55555 15.9854C9.60742 15.8634 9.61425 15.728 9.57506 15.6018L9.57501 15.6017L7.61465 9.26534L7.55453 9.071H7.75795H11.2497H11.2498C11.3529 9.07105 11.4541 9.04552 11.5437 8.99712C11.6333 8.94873 11.7081 8.87923 11.7614 8.79565C11.8147 8.71211 11.8448 8.61711 11.8494 8.51968C11.8539 8.42226 11.8328 8.32514 11.7876 8.23745C11.7876 8.23744 11.7876 8.23742 11.7876 8.23741L8.03785 0.965164L8.03783 0.965132C7.98855 0.869501 7.91243 0.788426 7.81742 0.731503C7.72238 0.674559 7.61246 0.644213 7.50004 0.644264H7.49997L2.25034 0.644264L2.25005 0.644264C2.14376 0.64406 2.03954 0.671032 1.94793 0.722145C1.85635 0.773243 1.78084 0.846513 1.72856 0.934121C1.67631 1.02169 1.64896 1.1207 1.64891 1.22121C1.64886 1.32172 1.6761 1.42075 1.72827 1.50837L1.7286 1.50893L4.08644 5.50869L4.21977 5.73486H3.95722H0.750445ZM7.39053 12.5866L7.13422 12.7296L2.25432 7.13795L2.03733 6.88932H2.36733H5.25013L5.25041 6.88932C5.3567 6.88952 5.46092 6.86255 5.55253 6.81144C5.64412 6.76034 5.71962 6.68707 5.7719 6.59946C5.82416 6.51189 5.85151 6.41289 5.85156 6.31237C5.85161 6.21186 5.82436 6.11283 5.77219 6.02521L5.77186 6.02465L3.41403 2.02489L3.2807 1.79872H3.54325H7.0365H7.12792L7.16982 1.87998L10.1696 7.6978L10.2824 7.91655H10.0363H6.75002H6.74992C6.65551 7.91648 6.56257 7.93787 6.47858 7.97878C6.39461 8.01968 6.32212 8.07886 6.26666 8.15122C6.21121 8.22357 6.17425 8.30715 6.15839 8.3952C6.14252 8.48325 6.14812 8.57367 6.17479 8.65936L6.17486 8.65958L7.39053 12.5866Z" fill="white" stroke="#202020" stroke-width="0.3"/>
</svg>
