<svg width="17" height="19" viewBox="0 0 17 19" fill="none" xmlns="http://www.w3.org/2000/svg">
<path d="M7.75816 1.97869C7.87844 1.87435 7.9908 1.76198 8.09515 1.64171C8.19949 1.76198 8.31186 1.87435 8.43213 1.97869C8.31186 2.08304 8.19949 2.1954 8.09515 2.31567C7.9908 2.1954 7.87844 2.08304 7.75816 1.97869Z" stroke="white"/>
<path d="M14.6393 4.40713C14.7595 4.30278 14.8719 4.19042 14.9762 4.07015C15.0806 4.19042 15.193 4.30278 15.3132 4.40713C15.193 4.51147 15.0806 4.62384 14.9762 4.74411C14.8719 4.62384 14.7595 4.51147 14.6393 4.40713Z" stroke="white"/>
<path d="M0.877305 4.40713C0.997576 4.30278 1.10994 4.19042 1.21429 4.07015C1.31863 4.19042 1.431 4.30278 1.55127 4.40713C1.431 4.51147 1.31863 4.62384 1.21429 4.74411C1.10994 4.62384 0.997576 4.51147 0.877305 4.40713Z" stroke="white"/>
<path d="M8.09534 17.7643C11.672 17.7643 14.5715 14.8648 14.5715 11.2881C14.5715 7.71144 11.672 4.81195 8.09534 4.81195C4.51863 4.81195 1.61914 7.71144 1.61914 11.2881C1.61914 14.8648 4.51863 17.7643 8.09534 17.7643Z" stroke="white" stroke-miterlimit="10"/>
<path d="M8.09522 16.024C10.7107 16.024 12.8309 13.9038 12.8309 11.2883C12.8309 8.67284 10.7107 6.55258 8.09522 6.55258C5.47975 6.55258 3.3595 8.67284 3.3595 11.2883C3.3595 13.9038 5.47975 16.024 8.09522 16.024Z" stroke="white" stroke-miterlimit="10" stroke-linecap="round" stroke-linejoin="round"/>
<path d="M8.09509 4.81195V6.431" stroke="white" stroke-miterlimit="10" stroke-linecap="round" stroke-linejoin="round"/>
<path d="M12.6689 6.71445L11.5355 7.84778" stroke="white" stroke-miterlimit="10" stroke-linecap="round" stroke-linejoin="round"/>
<path d="M14.5716 11.2884H12.9525" stroke="white" stroke-miterlimit="10" stroke-linecap="round" stroke-linejoin="round"/>
<path d="M12.6689 15.8622L11.5355 14.7289" stroke="white" stroke-miterlimit="10" stroke-linecap="round" stroke-linejoin="round"/>
<path d="M8.09509 17.7643V16.1453" stroke="white" stroke-miterlimit="10" stroke-linecap="round" stroke-linejoin="round"/>
<path d="M3.52136 15.8622L4.6547 14.7289" stroke="white" stroke-miterlimit="10" stroke-linecap="round" stroke-linejoin="round"/>
<path d="M1.61914 11.2884H3.23819" stroke="white" stroke-miterlimit="10" stroke-linecap="round" stroke-linejoin="round"/>
<path d="M3.52136 6.71445L4.6547 7.84778" stroke="white" stroke-miterlimit="10" stroke-linecap="round" stroke-linejoin="round"/>
<path d="M7.08337 12.8263L7.28576 13.0287C7.48814 13.2311 7.73099 13.312 8.01433 13.312H8.09528C8.66195 13.312 9.10718 12.8668 9.10718 12.3001C9.10718 11.7335 8.66195 11.2882 8.09528 11.2882C7.52861 11.2882 7.08337 10.843 7.08337 10.2763C7.08337 9.70964 7.52861 9.2644 8.09528 9.2644H8.17623C8.45957 9.2644 8.70242 9.38583 8.9048 9.54774L9.10718 9.75012" stroke="white" stroke-miterlimit="10" stroke-linecap="round" stroke-linejoin="round"/>
<path d="M8.09509 9.26439V8.45486" stroke="white" stroke-miterlimit="10" stroke-linecap="round" stroke-linejoin="round"/>
<path d="M8.09509 13.312V14.1215" stroke="white" stroke-miterlimit="10" stroke-linecap="round" stroke-linejoin="round"/>
</svg>
