<svg width="26" height="21" viewBox="0 0 26 21" fill="none" xmlns="http://www.w3.org/2000/svg">
<path d="M1.56321 12.0356L3.28841 12.4345L4.58706 10.5332L2.11887 9.96436C1.8243 9.89565 1.51252 9.93887 1.25213 10.0845C0.991729 10.2301 0.804044 10.4663 0.730359 10.7409C0.656675 11.0156 0.703026 11.3063 0.859216 11.5491C1.01541 11.7919 1.26864 11.9669 1.56321 12.0356ZM24.0819 12.3436L18.4329 17.0833L11.7916 12.2905C11.6649 12.1996 11.5192 12.1345 11.3638 12.0993L10.4803 11.894L9.18041 13.7953L10.5727 14.1175L17.7836 19.3197C17.9977 19.4734 18.2627 19.5524 18.5326 19.5431C18.8026 19.5339 19.0606 19.4369 19.262 19.269L25.6261 13.9263C25.7382 13.8326 25.8292 13.7192 25.894 13.5926C25.9588 13.4659 25.996 13.3286 26.0035 13.1885C26.0111 13.0483 25.9888 12.9082 25.9379 12.7762C25.887 12.6441 25.8086 12.5228 25.7071 12.4192C25.5018 12.209 25.2157 12.0831 24.9112 12.069C24.6067 12.0548 24.3086 12.1536 24.0819 12.3436ZM11.6815 7.13661L17.8672 10.8294C18.1184 10.9792 18.422 11.0326 18.7145 10.9785C19.007 10.9244 19.2658 10.767 19.4367 10.5391L25.7995 1.99215C25.8857 1.87681 25.9465 1.74671 25.9784 1.60934C26.0103 1.47198 26.0128 1.33008 25.9856 1.19183C25.9584 1.05358 25.9021 0.921721 25.82 0.803856C25.7379 0.685991 25.6316 0.584456 25.5071 0.505111C25.2561 0.343393 24.9465 0.281149 24.6463 0.33204C24.3462 0.382932 24.0799 0.5428 23.906 0.776555L18.1747 8.47259L11.9524 4.75853C11.6941 4.6046 11.381 4.5524 11.0815 4.61336C10.7832 4.67551 10.5234 4.84523 10.3588 5.08544L0.86959 18.9728C0.758317 19.1343 0.695904 19.3208 0.688946 19.5127C0.681989 19.7046 0.730745 19.8946 0.830063 20.0628C0.929381 20.231 1.07557 20.371 1.25319 20.4681C1.43081 20.5652 1.63326 20.6157 1.83914 20.6144C2.03285 20.6149 2.22353 20.5697 2.39348 20.483C2.56342 20.3963 2.70713 20.271 2.81123 20.1187L11.6815 7.13661Z" fill="white"/>
</svg>
