<svg width="14" height="12" viewBox="0 0 14 12" fill="none" xmlns="http://www.w3.org/2000/svg">
<path fill-rule="evenodd" clip-rule="evenodd" d="M1.08791 1.14145C0.391787 1.86579 0 2.84739 0 3.87095C0 4.89501 0.391787 5.87661 1.08791 6.60045L5.84321 11.5454C6.12384 11.8371 6.50475 12 6.90198 12C7.2987 12 7.68012 11.8371 7.96074 11.5454C8.82188 10.6497 12.7121 6.59645 12.7121 6.59645C13.4082 5.87262 13.8 4.89102 13.8 3.86696C13.8 2.84289 13.4082 1.86179 12.7121 1.13746C12.011 0.408625 11.0595 0 10.0679 0C9.07632 0 8.12526 0.408625 7.42419 1.13746L6.89802 1.68446L6.37581 1.14145C5.67474 0.412622 4.72368 0.0039964 3.73211 0.0039964C2.74053 0.0039964 1.78898 0.412622 1.08791 1.14145ZM1.79639 1.83831C2.30972 1.3043 3.00584 1.00308 3.73211 1.00308C4.45837 1.00308 5.154 1.3043 5.66733 1.83831L6.54378 2.74948C6.63667 2.84589 6.76463 2.90084 6.89802 2.90084C7.03142 2.90084 7.15938 2.84589 7.25226 2.74948L8.13267 1.83382C8.646 1.30031 9.34163 0.999084 10.0679 0.999084C10.7942 0.999084 11.4898 1.30031 12.0036 1.83382C12.0051 1.83582 12.0066 1.83732 12.0085 1.83931C12.5219 2.37332 12.8119 3.10465 12.8119 3.86696C12.8119 4.62926 12.5219 5.36109 12.0036 5.90009C12.0036 5.90009 8.1134 9.95338 7.25226 10.8491C7.15938 10.9455 7.0334 11.0009 6.90198 11.0009C6.77056 11.0009 6.64457 10.9455 6.55169 10.8491L1.79639 5.90409C1.27813 5.36508 0.988114 4.63325 0.988114 3.87095C0.988114 3.10865 1.27813 2.37732 1.79639 1.83831Z" fill="white"/>
<path fill-rule="evenodd" clip-rule="evenodd" d="M6.37465 5.54967H5.32544C5.03543 5.54967 4.80005 5.75143 4.80005 6.00001C4.80005 6.2486 5.03543 6.45035 5.32544 6.45035H6.37465V7.34967C6.37465 7.59826 6.61003 7.80001 6.90005 7.80001C7.19007 7.80001 7.42544 7.59826 7.42544 7.34967V6.45035H8.47465C8.76467 6.45035 9.00005 6.2486 9.00005 6.00001C9.00005 5.75143 8.76467 5.54967 8.47465 5.54967H7.42544V4.65035C7.42544 4.40176 7.19007 4.20001 6.90005 4.20001C6.61003 4.20001 6.37465 4.40176 6.37465 4.65035V5.54967Z" fill="white"/>
</svg>
