<svg width="33" height="24" viewBox="0 0 33 24" fill="none" xmlns="http://www.w3.org/2000/svg">
<path d="M31.5892 0.532715H1.3756C0.96563 0.532715 0.72821 0.85692 0.72821 1.25187V16.9183V17.4583V19.7687V20.2895V23.1401C0.72821 23.5346 0.96563 23.8774 1.3756 23.8774H31.5892C31.9997 23.8774 32.4171 23.5346 32.4171 23.1397V20.2892V20.0422V17.4581V17.1918V1.25187C32.4171 0.85692 31.9997 0.532715 31.5892 0.532715ZM30.9317 22.4481H2.21363V21.0189H30.9317V22.4481ZM30.9317 19.5896H2.21363V18.1603H30.9317V19.5896ZM30.9317 16.7311H2.21363V1.96198H30.9317V16.7311Z" fill="white"/>
<path d="M4.10331 3.13295C3.82579 2.86592 3.33065 2.86592 3.05362 3.13295C2.91473 3.26659 2.83551 3.44977 2.83551 3.63796C2.83551 3.82638 2.91473 4.00956 3.05362 4.14296C3.19226 4.27636 3.38288 4.35258 3.57822 4.35258C3.77404 4.35258 3.96467 4.27636 4.10331 4.14296C4.2422 4.00933 4.32092 3.82638 4.32092 3.63796C4.32092 3.44977 4.2422 3.26635 4.10331 3.13295Z" fill="white"/>
<path d="M29.6543 3.13295C29.3768 2.86592 28.8816 2.86592 28.6046 3.13295C28.4657 3.26659 28.3865 3.44977 28.3865 3.63796C28.3865 3.82638 28.4657 4.00956 28.6046 4.14296C28.7435 4.27636 28.9339 4.35258 29.1292 4.35258C29.325 4.35258 29.5157 4.27636 29.6543 4.14296C29.7932 4.00933 29.8719 3.82638 29.8719 3.63796C29.8719 3.44977 29.7932 3.26635 29.6543 3.13295Z" fill="white"/>
<path d="M4.10331 14.5723C3.82579 14.3056 3.33065 14.3056 3.05362 14.5723C2.91473 14.706 2.83551 14.8892 2.83551 15.0776C2.83551 15.2655 2.91473 15.4494 3.05362 15.5824C3.1925 15.716 3.38288 15.7922 3.57822 15.7922C3.77404 15.7922 3.96467 15.716 4.10331 15.5824C4.2422 15.4492 4.32092 15.2655 4.32092 15.0776C4.32092 14.8892 4.2422 14.7057 4.10331 14.5723Z" fill="white"/>
<path d="M29.6543 14.8106C29.3768 14.5438 28.8816 14.5438 28.6046 14.8106C28.4657 14.9442 28.3865 15.1274 28.3865 15.3158C28.3865 15.5038 28.4657 15.6877 28.6046 15.8206C28.7435 15.9542 28.9339 16.0304 29.1292 16.0304C29.325 16.0304 29.5157 15.9542 29.6543 15.8206C29.7932 15.6874 29.8719 15.5038 29.8719 15.3158C29.8719 15.1274 29.7932 14.944 29.6543 14.8106Z" fill="white"/>
<path d="M29.1639 5.38398C28.0271 5.38398 27.0848 4.4895 27.0848 3.39539C27.0848 3.26366 26.9566 3.15289 26.8199 3.15289H5.88763C5.75072 3.15289 5.64006 3.26366 5.64006 3.39539C5.64006 4.4895 4.77554 5.3816 3.6387 5.3816C3.50179 5.3816 3.45154 5.49022 3.45154 5.62219V12.85C3.45154 12.9815 3.50179 13.0882 3.6387 13.0882C4.77554 13.0882 5.67026 13.9741 5.67026 15.068C5.67026 15.1997 5.75072 15.3019 5.88763 15.3019H26.8199C26.9568 15.3019 27.0675 15.1995 27.0675 15.068C27.0675 13.9741 28.0273 13.0863 29.1642 13.0863C29.3008 13.0861 29.4464 12.9815 29.4464 12.85V5.62219C29.4464 5.49022 29.3008 5.38398 29.1639 5.38398ZM7.8318 10.7566C6.89375 10.7566 6.13322 10.0246 6.13322 9.12199C6.13322 8.2194 6.89375 7.48762 7.8318 7.48762C8.76984 7.48762 9.53038 8.2194 9.53038 9.12199C9.53038 10.0246 8.76984 10.7566 7.8318 10.7566ZM19.6882 11.6832C19.2215 11.1835 18.3058 10.9624 17.563 10.8619V10.042C18.0582 9.62771 18.2783 8.76562 18.2783 7.90592C18.2783 6.41496 17.4898 6.02 16.4987 6.02C15.5077 6.02 14.6771 6.41496 14.6771 7.90592C14.6771 8.76538 15.0876 9.62771 15.3352 10.042V10.8619C14.5924 10.9653 13.6883 11.1963 13.2348 11.7283C12.8354 10.9784 12.6186 10.0817 12.6186 9.11675C12.6186 6.48999 14.3493 4.36086 16.4745 4.36086C18.5991 4.36086 20.3111 6.48999 20.3111 9.11675C20.3108 10.0629 20.0736 10.9424 19.6882 11.6832ZM25.2028 10.7566C24.2648 10.7566 23.5042 10.0246 23.5042 9.12199C23.5042 8.2194 24.2648 7.48762 25.2028 7.48762C26.1409 7.48762 26.9014 8.2194 26.9014 9.12199C26.9014 10.0246 26.1409 10.7566 25.2028 10.7566Z" fill="white"/>
</svg>
