<svg width="15" height="15" viewBox="0 0 15 15" fill="none" xmlns="http://www.w3.org/2000/svg">
<path d="M10.1886 5.10906L9.90281 10.9348L7.74014 9.62993H5.64771V4.39616L2.13466 1.31827V3.024L0 1.38894V14.7644H4.86802H5.64775H9.71502H10.1388H13.0062L12.5327 5.10906H10.1886ZM4.86292 13.9796H0.784785V12.7119H3.27208V11.9272H0.784785V10.4971H3.27208V9.71233H0.784785V8.2823H3.27208V7.49751H0.784785V6.06748H3.27208V5.28269H0.784785V2.9786L2.91944 4.61366V3.04927L4.86292 4.75202V13.9796ZM9.75351 13.9796H5.65281V10.4147H7.52174L9.85918 11.8251L9.75351 13.9796ZM10.5392 13.9796L10.9358 5.89384H11.7854L12.182 13.9796H10.5392Z" fill="white"/>
<path d="M13.7071 1.20879C13.4205 0.922225 13.0395 0.764404 12.6342 0.764404C12.229 0.764404 11.8479 0.922225 11.5613 1.20879C11.3522 1.4179 11.2107 1.68044 11.1502 1.96548C11.0467 2.0241 10.9509 2.0967 10.8668 2.18082C10.3517 2.69588 10.3517 3.53395 10.8668 4.04908C11.1163 4.29857 11.448 4.43598 11.8009 4.43598C12.1538 4.43598 12.4855 4.29857 12.735 4.04908C12.8192 3.96488 12.8917 3.86917 12.9504 3.76562C13.2354 3.70515 13.4979 3.56362 13.7071 3.35447C14.2986 2.76298 14.2986 1.80036 13.7071 1.20879ZM13.1522 2.79959C13.0222 2.92951 12.8496 3.0054 12.6661 3.01329L12.3949 3.02498L12.3101 3.2829C12.2838 3.36314 12.24 3.4342 12.1801 3.49416C12.0788 3.59544 11.9442 3.65124 11.8009 3.65124C11.6577 3.65124 11.523 3.59544 11.4217 3.4942C11.2126 3.2851 11.2126 2.94485 11.4217 2.73578C11.4816 2.67587 11.5527 2.63208 11.633 2.60571L11.8908 2.52099L11.9025 2.24985C11.9104 2.06628 11.9863 1.89367 12.1163 1.76375C12.2546 1.62539 12.4385 1.54919 12.6342 1.54919C12.8298 1.54919 13.0138 1.62535 13.1521 1.76375C13.4377 2.04933 13.4377 2.514 13.1522 2.79959Z" fill="white"/>
</svg>
