<svg width="15" height="16" viewBox="0 0 15 16" fill="none" xmlns="http://www.w3.org/2000/svg">
<path d="M14.999 7.18944L13.1997 6.84566C13.089 6.62478 12.9007 6.44434 12.6568 6.35308C12.6263 6.34167 12.5952 6.33182 12.5642 6.32352L10.549 2.19461C10.7403 1.79691 10.7649 1.32143 10.5756 0.89003C10.239 0.121595 9.35316 -0.213364 8.59698 0.141817L1.07771 3.3177C0.161774 3.74807 -0.250371 4.85146 0.157267 5.78219C0.331039 6.17886 0.6255 6.47959 0.977551 6.66159L3.71584 13.6522L3.83202 13.9576C3.30169 14.4657 2.96967 15.1927 2.96967 16H8.34508C8.34508 14.4631 7.1417 13.2171 5.65738 13.2171C5.65237 13.2171 5.64786 13.2171 5.64285 13.2171L5.45105 12.6722L5.4811 12.68L5.42852 12.6084L3.23358 6.36448L3.23158 6.33804L9.27404 3.20571L11.3964 6.94522C11.3934 6.95351 11.3899 6.96129 11.3873 6.96959C11.3708 7.01729 11.3578 7.06551 11.3483 7.11425L9.65664 8.18083L10.2255 8.71749L11.0498 10.539L11.8911 10.7013L11.5491 8.18239L11.6783 8.10202C11.7659 8.17928 11.8686 8.24202 11.9833 8.28505C12.419 8.44838 12.8932 8.27572 13.1416 7.89565L13.7581 10.3451L14.4932 9.89192L14.6404 8.1072L14.71 8.12017L15 7.19099L14.999 7.18944ZM1.57999 3.79422C2.22801 3.68326 2.83997 4.13695 2.94713 4.80791C3.0543 5.47886 2.61612 6.11249 1.9681 6.22345C1.32009 6.33441 0.708129 5.88071 0.600962 5.20976C0.493794 4.5388 0.93198 3.90518 1.57999 3.79422ZM8.34058 1.6735C8.26045 1.1721 8.58796 0.698699 9.07222 0.615737C9.46283 0.548849 9.83542 0.756254 10.0072 1.1021C10.0172 1.12232 10.0262 1.14255 10.0347 1.16329C10.0357 1.16536 10.0362 1.16743 10.0372 1.16899C10.0452 1.18921 10.0528 1.20943 10.0598 1.23069C10.0598 1.23121 10.0603 1.23173 10.0603 1.23225C10.0668 1.25247 10.0728 1.27373 10.0778 1.29447C10.0788 1.29914 10.0798 1.3038 10.0808 1.30795C10.0858 1.32921 10.0903 1.35047 10.0933 1.37225C10.1083 1.4661 10.1088 1.55943 10.0968 1.64913C10.0447 2.0375 9.75479 2.36312 9.36167 2.43053C9.34715 2.43312 9.33313 2.4352 9.31911 2.43675C9.3146 2.43727 9.31009 2.43779 9.30559 2.43831C9.29607 2.43935 9.28606 2.44038 9.27654 2.4409C9.27103 2.44142 9.26552 2.44142 9.26052 2.44194C9.2515 2.44246 9.24299 2.44297 9.23448 2.44297C9.22897 2.44297 9.22346 2.44297 9.21745 2.44297C9.20894 2.44297 9.20042 2.44297 9.19191 2.44246C9.1864 2.44246 9.18089 2.44194 9.17538 2.44194C9.16687 2.44142 9.15836 2.4409 9.14984 2.44038C9.14433 2.43986 9.13933 2.43935 9.13382 2.43883C9.1243 2.43779 9.11529 2.43675 9.10628 2.43572C9.10177 2.4352 9.09726 2.43468 9.09275 2.43416C9.07923 2.43209 9.06621 2.43001 9.05269 2.42742C9.05219 2.42742 9.05219 2.42742 9.05169 2.42742C9.03867 2.42483 9.02515 2.42172 9.01213 2.4186C9.00762 2.41757 9.00311 2.41601 8.99861 2.41498C8.99009 2.4129 8.98108 2.41031 8.97257 2.40772C8.96756 2.40616 8.96205 2.4046 8.95704 2.40305C8.94903 2.40046 8.94152 2.39786 8.93351 2.39527C8.928 2.3932 8.92299 2.39164 8.91748 2.38957C8.90997 2.38698 8.90246 2.38386 8.89495 2.38075C8.88994 2.37868 8.88443 2.37661 8.87942 2.37453C8.87191 2.37142 8.8644 2.36779 8.85689 2.36468C8.85188 2.36261 8.84687 2.36001 8.84236 2.35794C8.83435 2.35431 8.82634 2.35016 8.81832 2.34601C8.81432 2.34394 8.81031 2.34186 8.80631 2.33979C8.79479 2.33357 8.78277 2.32683 8.77175 2.32009C8.77175 2.32009 8.77125 2.32009 8.77125 2.31957C8.5499 2.18631 8.38565 1.95505 8.34058 1.6735Z" fill="white"/>
</svg>
