<svg width="33" height="18" viewBox="0 0 33 18" fill="none" xmlns="http://www.w3.org/2000/svg">
<path d="M31.797 0.329712H1.63452C1.22486 0.329712 0.892822 0.649433 0.892822 1.04337V17.2197C0.892822 17.6137 1.22486 17.9334 1.63452 17.9334H31.797C32.2067 17.9334 32.5387 17.6137 32.5387 17.2197V1.04337C32.5387 0.649433 32.2067 0.329712 31.797 0.329712ZM31.0553 16.5061H2.37622V1.75704H31.0553V16.5061Z" fill="white"/>
<path d="M17.7047 10.6131V9.79477C18.1992 9.38084 18.419 8.5204 18.419 7.66163C18.419 6.17269 17.6315 5.77827 16.6419 5.77827C15.6522 5.77827 14.8227 6.17269 14.8227 7.66163C14.8227 8.52016 15.2326 9.38084 15.4799 9.79477V10.6131C14.4909 10.7556 13.2548 11.1341 13.2548 12.2041L13.2545 12.2241V13.7075L15.019 14.8408H19.5103L20.1395 12.2552C20.1395 11.1852 18.6936 10.7554 17.7047 10.6131Z" fill="white"/>
<path d="M29.2899 5.1426C28.1546 5.1426 27.2136 4.26527 27.2136 3.1729C27.2136 3.04134 27.0855 2.94643 26.9491 2.94643H6.04521C5.90849 2.94643 5.79797 3.04134 5.79797 3.1729C5.79797 4.26551 4.93463 5.14855 3.79934 5.14855C3.66262 5.14855 3.61243 5.24941 3.61243 5.38073V12.5987C3.61243 12.7303 3.66262 12.8366 3.79934 12.8366C4.93463 12.8366 5.82813 13.737 5.82813 14.8294C5.82813 14.9609 5.90849 15.0789 6.04521 15.0789H26.9491C27.0858 15.0789 27.1963 14.9609 27.1963 14.8294C27.1963 13.737 28.1548 12.8425 29.2901 12.8425C29.4268 12.8425 29.5722 12.73 29.5722 12.5987V5.38049C29.572 5.24941 29.4266 5.1426 29.2899 5.1426ZM7.97857 10.7606C7.03018 10.7606 6.26154 10.021 6.26154 9.10842C6.26154 8.19613 7.03018 7.4563 7.97857 7.4563C8.92696 7.4563 9.69561 8.19613 9.69561 9.10842C9.69561 10.0207 8.92696 10.7606 7.97857 10.7606ZM16.6261 13.6197C14.5038 13.6197 12.7838 11.4935 12.7838 8.8703C12.7838 6.24711 14.5038 4.12111 16.6261 4.12111C18.7478 4.12111 20.4683 6.24735 20.4683 8.8703C20.4683 11.4932 18.7478 13.6197 16.6261 13.6197ZM25.2607 10.7606C24.3128 10.7606 23.5437 10.021 23.5437 9.10842C23.5437 8.19613 24.3128 7.4563 25.2607 7.4563C26.2091 7.4563 26.9777 8.19613 26.9777 9.10842C26.978 10.0207 26.2091 10.7606 25.2607 10.7606Z" fill="white"/>
</svg>
