<svg width="14" height="15" viewBox="0 0 14 15" fill="none" xmlns="http://www.w3.org/2000/svg">
<path d="M8.17199 1.17704C8.05385 0.969608 7.88323 0.797212 7.67742 0.677311C7.47162 0.55741 7.23792 0.494263 7 0.494263C6.76208 0.494263 6.52838 0.55741 6.32258 0.677311C6.11677 0.797212 5.94615 0.969608 5.82801 1.17704L4.29416 3.87145C4.23484 3.97564 4.21915 4.09924 4.25055 4.21505C4.28194 4.33086 4.35786 4.4294 4.46159 4.48899C4.56532 4.54858 4.68837 4.56434 4.80366 4.5328C4.91896 4.50127 5.01706 4.42501 5.07639 4.32082L6.60934 1.62551C6.64872 1.55636 6.70559 1.4989 6.77419 1.45893C6.84279 1.41896 6.92069 1.39792 7 1.39792C7.07931 1.39792 7.15721 1.41896 7.22581 1.45893C7.29441 1.4989 7.35128 1.55636 7.39066 1.62551L9.67703 5.64361L8.54645 5.33891C8.43114 5.30773 8.30823 5.32385 8.20475 5.3837C8.10127 5.44356 8.0257 5.54225 7.99466 5.65808C7.96363 5.7739 7.97967 5.89736 8.03926 6.0013C8.09885 6.10525 8.1971 6.18115 8.31241 6.21233L10.4863 6.79732C10.5434 6.81278 10.6029 6.81679 10.6616 6.80911C10.7202 6.80144 10.7768 6.78223 10.828 6.75259C10.8792 6.72295 10.9242 6.68345 10.9602 6.63636C10.9963 6.58928 11.0227 6.53551 11.0381 6.47815L11.6205 4.2946C11.6358 4.23725 11.6397 4.17743 11.632 4.11856C11.6243 4.0597 11.6051 4.00293 11.5755 3.9515C11.546 3.90008 11.5066 3.855 11.4598 3.81885C11.4129 3.7827 11.3593 3.75618 11.3022 3.7408C11.2452 3.72542 11.1856 3.72149 11.127 3.72923C11.0684 3.73697 11.0119 3.75623 10.9607 3.78591C10.9095 3.81559 10.8646 3.85511 10.8286 3.90221C10.7926 3.94931 10.7662 4.00307 10.7509 4.06042L10.4512 5.18339L8.17199 1.17704ZM2.47497 7.06948L1.34528 7.37418C1.22997 7.40535 1.10706 7.38924 1.00358 7.32938C0.900099 7.26953 0.824529 7.17083 0.793493 7.05501C0.762458 6.93919 0.7785 6.81572 0.83809 6.71178C0.89768 6.60784 0.995937 6.53193 1.11124 6.50076L3.286 5.91576C3.40118 5.88482 3.52389 5.90104 3.62717 5.96088C3.73046 6.02072 3.80588 6.11929 3.83689 6.23493L4.41928 8.41849C4.4502 8.53431 4.43404 8.65773 4.37437 8.76158C4.31469 8.86544 4.21639 8.94123 4.10108 8.97229C3.98577 9.00334 3.8629 8.98711 3.75951 8.92717C3.65611 8.86723 3.58066 8.76849 3.54974 8.65267L3.24999 7.52969L0.95912 11.5568C0.920028 11.6256 0.899592 11.7034 0.899858 11.7826C0.900125 11.8618 0.921083 11.9395 0.960638 12.0079C1.00019 12.0764 1.05695 12.1333 1.12525 12.1728C1.19354 12.2123 1.27097 12.2331 1.34978 12.2332H4.29956C4.41893 12.2332 4.53341 12.2808 4.61781 12.3656C4.70222 12.4503 4.74964 12.5653 4.74964 12.6852C4.74964 12.8051 4.70222 12.9201 4.61781 13.0049C4.53341 13.0897 4.41893 13.1373 4.29956 13.1373H1.34978C1.11334 13.1372 0.881053 13.0748 0.676175 12.9562C0.471298 12.8377 0.301009 12.6671 0.182346 12.4617C0.0636829 12.2563 0.000806628 12.0232 7.70955e-06 11.7857C-0.000791209 11.5482 0.0605152 11.3146 0.177793 11.1084L2.47497 7.06948ZM12.2776 8.39227C12.249 8.33925 12.2102 8.29249 12.1635 8.25475C12.1167 8.21701 12.0629 8.18904 12.0052 8.1725C11.9475 8.15595 11.8871 8.15116 11.8275 8.15841C11.7679 8.16565 11.7104 8.18479 11.6583 8.21469C11.6062 8.2446 11.5606 8.28466 11.5241 8.33253C11.4877 8.38039 11.4611 8.4351 11.446 8.49343C11.4309 8.55176 11.4276 8.61253 11.4362 8.67217C11.4448 8.73182 11.4652 8.78913 11.4962 8.84073L13.0409 11.5568C13.08 11.6256 13.1004 11.7034 13.1001 11.7826C13.0999 11.8618 13.0789 11.9395 13.0394 12.0079C12.9998 12.0764 12.943 12.1333 12.8748 12.1728C12.8065 12.2123 12.729 12.2331 12.6502 12.2332H7.6364L8.2188 11.6491C8.30319 11.5642 8.35055 11.4491 8.35047 11.3291C8.35038 11.2092 8.30286 11.0941 8.21835 11.0094C8.1765 10.9674 8.12683 10.9341 8.07218 10.9114C8.01753 10.8887 7.95896 10.8771 7.89983 10.8771C7.78039 10.8772 7.66589 10.9249 7.58149 11.0098L6.23128 12.3661C6.18928 12.4079 6.15595 12.4577 6.13321 12.5126C6.11046 12.5674 6.09875 12.6263 6.09875 12.6857C6.09875 12.7451 6.11046 12.8039 6.13321 12.8588C6.15595 12.9137 6.18928 12.9635 6.23128 13.0053L7.58149 14.3616C7.66589 14.4464 7.78039 14.4942 7.89983 14.4943C7.95896 14.4943 8.01753 14.4826 8.07218 14.46C8.12683 14.4373 8.1765 14.404 8.21835 14.362C8.26019 14.32 8.2934 14.2702 8.31607 14.2153C8.33874 14.1605 8.35043 14.1017 8.35047 14.0422C8.35051 13.9828 8.3389 13.924 8.31631 13.8691C8.29372 13.8142 8.26058 13.7643 8.2188 13.7223L7.6364 13.1373H12.6502C12.8867 13.1372 13.1189 13.0748 13.3238 12.9562C13.5287 12.8377 13.699 12.6671 13.8177 12.4617C13.9363 12.2563 13.9992 12.0232 14 11.7857C14.0008 11.5482 13.9395 11.3146 13.8222 11.1084L12.2776 8.39227Z" fill="white"/>
</svg>
