<svg width="39" height="32" viewBox="0 0 39 32" fill="none" xmlns="http://www.w3.org/2000/svg">
<path d="M31.077 20.6942L28.8347 18.7491C28.3197 18.2681 28.0212 17.6425 27.9939 16.9864V13.157C27.9939 8.23345 24.2101 4.03934 17.4833 4.03934C10.7565 4.03934 6.97266 8.11189 6.97266 13.157V17.4119C6.95968 17.7967 6.78527 18.1641 6.48216 18.4452L3.88954 20.6942C3.62549 20.9187 3.47438 21.2246 3.46912 21.5452V25.9217C3.46912 26.2441 3.61676 26.5533 3.87958 26.7813C4.1424 27.0093 4.49885 27.1374 4.87053 27.1374H12.6484C12.8434 28.1272 13.4357 29.0254 14.3205 29.6729C15.2053 30.3205 16.3256 30.6756 17.4833 30.6756C18.6409 30.6756 19.7612 30.3205 20.6461 29.6729C21.5309 29.0254 22.1232 28.1272 22.3182 27.1374H30.096C30.4677 27.1374 30.8242 27.0093 31.087 26.7813C31.3498 26.5533 31.4974 26.2441 31.4974 25.9217V21.5452C31.4922 21.2246 31.3411 20.9187 31.077 20.6942Z" fill="#53ACFF"/>
<path fill-rule="evenodd" clip-rule="evenodd" d="M29.9607 15.0588C34.7544 15.0588 38.6405 11.6878 38.6405 7.52941C38.6405 3.37103 34.7544 0 29.9607 0C25.1671 0 21.281 3.37103 21.281 7.52941C21.281 11.6878 25.1671 15.0588 29.9607 15.0588Z" fill="#118F4B"/>
<path d="M29.5328 12.12C28.4848 12.12 27.6728 11.752 27.0968 11.016C26.5288 10.28 26.2448 9.248 26.2448 7.92C26.2448 6.488 26.5648 5.38 27.2048 4.596C27.8528 3.812 28.7448 3.42 29.8808 3.42C30.3288 3.42 30.7728 3.504 31.2128 3.672C31.6528 3.832 32.0288 4.064 32.3408 4.368L31.8368 5.52C31.5408 5.248 31.2248 5.048 30.8888 4.92C30.5528 4.784 30.2088 4.716 29.8568 4.716C29.1608 4.716 28.6288 4.96 28.2608 5.448C27.8928 5.936 27.7088 6.664 27.7088 7.632V7.98C27.8768 7.54 28.1488 7.196 28.5248 6.948C28.9008 6.7 29.3328 6.576 29.8208 6.576C30.3088 6.576 30.7408 6.692 31.1169 6.924C31.4928 7.156 31.7888 7.476 32.0048 7.884C32.2208 8.292 32.3288 8.76 32.3288 9.288C32.3288 9.832 32.2088 10.32 31.9689 10.752C31.7368 11.176 31.4088 11.512 30.9848 11.76C30.5688 12 30.0848 12.12 29.5328 12.12ZM29.4488 10.896C29.8808 10.896 30.2288 10.756 30.4928 10.476C30.7648 10.188 30.9008 9.812 30.9008 9.348C30.9008 8.884 30.7648 8.508 30.4928 8.22C30.2288 7.932 29.8808 7.788 29.4488 7.788C29.0168 7.788 28.6648 7.932 28.3928 8.22C28.1288 8.508 27.9968 8.884 27.9968 9.348C27.9968 9.812 28.1288 10.188 28.3928 10.476C28.6648 10.756 29.0168 10.896 29.4488 10.896Z" fill="white"/>
</svg>
