<svg width="39" height="41" viewBox="0 0 39 41" fill="none" xmlns="http://www.w3.org/2000/svg">
<path d="M19.0091 41.0002C29.5076 41.0002 38.0183 31.822 38.0183 20.5001C38.0183 9.17821 29.5076 0 19.0091 0C8.51068 0 0 9.17821 0 20.5001C0 31.822 8.51068 41.0002 19.0091 41.0002Z" fill="#53ACFF"/>
<path fill-rule="evenodd" clip-rule="evenodd" d="M14.298 25.6033L24.0917 25.742V34.3123L14.306 34.232L14.298 25.6033Z" fill="#FFEBC8"/>
<path fill-rule="evenodd" clip-rule="evenodd" d="M32.8987 34.494C31.1224 36.5497 28.9722 38.1884 26.5824 39.3079C24.1927 40.4273 21.6145 41.0034 19.009 41.0003C18.22 41.0002 17.4316 40.9477 16.6486 40.8431C14.2365 40.5213 11.9048 39.7004 9.78126 38.4255C7.97321 37.3404 6.34075 35.9456 4.94775 34.2956L5.73765 32.239L14.3041 28.1177C14.3041 31.1264 15.436 32.1992 19.2071 32.2602C23.8641 32.3352 24.0917 31.1947 24.0917 28.0938L31.9599 32.2609L32.8987 34.494Z" fill="#F7DA75"/>
<path opacity="0.11" fill-rule="evenodd" clip-rule="evenodd" d="M24.0936 25.7267V27.9851C22.4018 31.2452 15.481 31.3009 14.298 25.6033L24.0936 25.7267Z" fill="black"/>
<path fill-rule="evenodd" clip-rule="evenodd" d="M19.1501 5.59412C32.2418 5.59412 27.1395 28.9909 19.1501 28.9909C11.6036 28.9909 6.05836 5.59412 19.1501 5.59412Z" fill="#FFEBC8"/>
<path fill-rule="evenodd" clip-rule="evenodd" d="M11.2979 15.9523C9.40924 16.8413 11.0149 21.0522 12.2034 21.0329C11.7105 19.3856 11.4064 17.6794 11.2979 15.9523Z" fill="#F9DCA4"/>
<path fill-rule="evenodd" clip-rule="evenodd" d="M27.1542 15.9523C29.0429 16.8407 27.4372 21.0522 26.2493 21.0329C26.7419 19.3855 27.0458 17.6793 27.1542 15.9523Z" fill="#F9DCA4"/>
<path fill-rule="evenodd" clip-rule="evenodd" d="M26.7045 19.627C26.7045 19.627 27.3603 13.8445 25.4649 11.8303C24.6406 14.1709 20.8498 14.9704 20.8498 14.9704C21.5858 14.4152 22.2508 13.7578 22.8276 13.0152C21.8113 13.4896 18.5976 14.9113 15.6853 13.7855C16.4776 13.2705 17.2227 12.6753 17.9104 12.0081C17.9104 12.0081 15.2731 13.5486 12.7183 13.1639C10.8783 14.6446 11.6971 19.2423 11.6971 19.2423C9.22773 12.2185 11.5021 4.17695 19.3106 4.13051C26.913 4.08473 29.2587 11.9902 26.7045 19.627Z" fill="#202020"/>
<path fill-rule="evenodd" clip-rule="evenodd" d="M14.3063 27.9831C15.5031 29.9062 17.209 31.3964 19.2019 32.2596L16.014 35.8083L11.9593 29.105L14.3063 27.9831Z" fill="white"/>
<path fill-rule="evenodd" clip-rule="evenodd" d="M24.0904 27.9831C22.8935 29.9062 21.1877 31.3963 19.1948 32.2596L22.382 35.8083L26.4373 29.1056L24.0904 27.9831Z" fill="white"/>
<path fill-rule="evenodd" clip-rule="evenodd" d="M20.5262 40.9341C20.018 40.977 19.5046 40.9986 18.9858 40.9991C18.5945 40.9991 18.2059 40.9867 17.82 40.9619L18.4542 35.1522H19.9368L20.5262 40.9341Z" fill="#3DBC93"/>
<path fill-rule="evenodd" clip-rule="evenodd" d="M17.5153 34.1377L19.1991 32.2688L20.8822 34.1377L19.1991 36.0066L17.5153 34.1377Z" fill="#3DBC93"/>
</svg>
