<svg width="26" height="18" viewBox="0 0 26 18" fill="none" xmlns="http://www.w3.org/2000/svg">
<path d="M5.033 2.57143H0.893002C0.417288 2.57143 -0.0584266 2.98286 0.00585909 3.65143L2.01157 16.4957C2.01157 16.4957 4.39014 7.03286 4.853 4.75714C4.99443 4.07571 5.63729 3.85714 6.113 3.85714H12.7473C12.7473 3.85714 11.8473 1.18286 11.7573 0.887143C11.603 0.321429 11.3201 0 10.7544 0H6.49872C6.03586 0 5.59872 0.295714 5.47015 0.822857C5.35443 1.33714 5.033 2.57143 5.033 2.57143ZM11.3073 2.57143H6.16443C6.16443 2.57143 6.70443 1.28571 7.283 1.28571H10.0216C10.6387 1.28571 11.3073 2.57143 11.3073 2.57143ZM3.323 17.0357C2.92443 17.64 2.34586 18 1.703 18H21.9273C22.6216 18 23.1101 17.6014 23.2516 16.9329C23.8173 14.1171 25.4116 6.08143 25.4116 6.08143C25.5016 5.43857 25.0259 5.14286 24.6144 5.14286H20.4616V3.25286C20.4616 3.04714 20.1273 2.57143 19.613 2.57143H14.7787C14.1101 2.57143 13.6601 3.31714 13.6601 3.31714L12.7473 5.14286H7.07729C6.66586 5.14286 6.26729 5.38714 6.19015 5.78571C6.19015 5.78571 4.14586 14.4 3.97872 15.21C3.88872 15.6857 3.69586 16.4829 3.323 17.0357ZM19.6644 5.14286H14.033C14.033 5.14286 14.7787 3.85714 15.4859 3.85714H18.4301C19.343 3.85714 19.6644 5.14286 19.6644 5.14286Z" fill="#5D5D5D"/>
</svg>
