<svg width="17" height="16" viewBox="0 0 17 16" fill="none" xmlns="http://www.w3.org/2000/svg">
<path d="M16.6323 7.08147L8.5922 0.11614C8.46683 0.00751051 8.28068 0.00751051 8.1553 0.11614L0.115188 7.08147C0.00989462 7.1727 -0.0276237 7.31969 0.0210487 7.45021C0.0697212 7.58072 0.194346 7.66727 0.333658 7.66727H2.35494V14.7011C2.35494 14.8853 2.50429 15.0347 2.68855 15.0347H14.059C14.2432 15.0347 14.3926 14.8853 14.3926 14.7011V7.66727H16.4139C16.5532 7.66727 16.6778 7.58072 16.7265 7.45021C16.7751 7.31969 16.7376 7.17266 16.6323 7.08147ZM14.059 7.00002C13.8747 7.00002 13.7253 7.14941 13.7253 7.33363V14.3674H3.02212V7.33363C3.02212 7.14941 2.87277 7.00002 2.68851 7.00002H1.22821L8.37374 0.809723L15.5192 7.00002H14.059Z" fill="white"/>
<path d="M13.5619 5.99177L11.3801 4.07373C11.2417 3.95205 11.0309 3.96565 10.9092 4.10402C10.7876 4.24238 10.8011 4.4532 10.9395 4.57484L13.1213 6.49289C13.1847 6.5486 13.2632 6.57594 13.3415 6.57594C13.4341 6.57594 13.5262 6.53761 13.5921 6.4626C13.7138 6.32427 13.7002 6.11342 13.5619 5.99177Z" fill="white"/>
<path d="M10.608 3.39514L10.5073 3.30656C10.3689 3.18481 10.1581 3.19845 10.0364 3.33681C9.91477 3.47518 9.92834 3.68596 10.0667 3.80761L10.1675 3.89619C10.2308 3.95192 10.3094 3.97927 10.3876 3.97927C10.4802 3.97927 10.5723 3.94093 10.6383 3.86593C10.76 3.72757 10.7464 3.51678 10.608 3.39514Z" fill="white"/>
<path d="M12.3126 11.4964L8.83352 8.01728C8.9935 7.30931 8.7838 6.5716 8.26283 6.05063C7.8618 5.6496 7.32857 5.42871 6.76144 5.42871C6.19428 5.42871 5.66108 5.6496 5.26005 6.05063C4.4322 6.87851 4.4322 8.22561 5.26005 9.05347C5.78112 9.5745 6.51877 9.78427 7.22671 9.62412L7.45836 9.85578C7.5246 9.92195 7.61641 9.95721 7.70977 9.95312L7.7345 10.0602C7.74853 10.1211 7.77944 10.1769 7.82363 10.2211L8.14978 10.5472C8.21232 10.6098 8.29721 10.6449 8.38569 10.6449H8.48261V10.7418C8.48261 10.8303 8.51777 10.9152 8.58031 10.9777L8.8347 11.2321C8.89724 11.2947 8.98212 11.3299 9.0706 11.3299H9.4937V11.753C9.4937 11.8414 9.52887 11.9263 9.59141 11.9889L10.1133 12.5107C10.1758 12.5733 10.2607 12.6085 10.3492 12.6085H10.5418V12.801C10.5418 12.8895 10.5769 12.9743 10.6395 13.0369L11.1113 13.5088C11.1739 13.5713 11.2588 13.6065 11.3472 13.6065C11.4357 13.6065 11.5206 13.5713 11.5832 13.5088L12.3127 12.7793C12.3753 12.7167 12.4104 12.6318 12.4104 12.5434V11.7323C12.4104 11.6438 12.3752 11.559 12.3126 11.4964ZM11.7431 12.4052L11.3472 12.801L11.2089 12.6627H11.209V12.2747C11.209 12.0905 11.0596 11.9411 10.8754 11.9411H10.4873L10.1609 11.6147V10.9962C10.1609 10.812 10.0116 10.6626 9.82731 10.6626H9.20883L9.14986 10.6036V10.3113C9.14986 10.127 9.0005 9.97765 8.81625 9.97765H8.52389L8.36312 9.81688L8.24762 9.31645C8.22034 9.19827 8.13107 9.10423 8.01453 9.0708C7.90132 9.03829 7.7798 9.06792 7.69436 9.1481L7.5611 9.01487C7.47193 8.9257 7.34014 8.89443 7.22039 8.93407C6.69393 9.10835 6.12356 8.97323 5.73183 8.58156C5.16411 8.01381 5.16411 7.09012 5.73183 6.52237C6.00682 6.24734 6.37252 6.09586 6.76144 6.09586C7.15033 6.09586 7.51599 6.24731 7.79102 6.52237C8.18272 6.91407 8.31785 7.48447 8.14353 8.01093C8.10389 8.13069 8.13516 8.26251 8.22433 8.35167L11.7431 11.8705V12.4052Z" fill="white"/>
<path d="M6.82483 7.13196L6.64133 6.94846C6.51101 6.81821 6.29977 6.81821 6.16949 6.94846C6.03921 7.07877 6.03921 7.29002 6.16949 7.4203L6.35299 7.6038C6.41812 7.66893 6.50352 7.70151 6.5889 7.70151C6.67427 7.70151 6.75964 7.66893 6.82483 7.6038C6.95509 7.47349 6.95509 7.26224 6.82483 7.13196Z" fill="white"/>
</svg>
