<svg width="25" height="27" viewBox="0 0 25 27" fill="none" xmlns="http://www.w3.org/2000/svg">
<path fill-rule="evenodd" clip-rule="evenodd" d="M0.154907 2.87874C0.154907 1.42128 1.40826 0.239777 2.95435 0.239777H18.2712L24.4167 6.03299V23.9905C24.4167 25.4479 23.1633 26.6294 21.6173 26.6294H2.95435C1.40826 26.6294 0.154907 25.4479 0.154907 23.9905V2.87874ZM11.3527 7.27702H5.75379V9.03633H11.3527V7.27702ZM18.8179 12.5549H5.75379V14.3143H18.8179V12.5549ZM10.055 19.43C9.30134 19.6209 8.71273 20.1634 8.50531 20.75L6.73477 20.1937C7.14947 19.0209 8.24052 18.0679 9.57083 17.731C10.8905 17.3968 12.3952 17.6767 13.6979 18.8065C14.0892 18.6979 14.477 18.6369 14.8603 18.6175C15.8657 18.5667 16.7692 18.8058 17.5437 19.11C18.1126 19.3334 18.6641 19.6159 19.1279 19.8534C19.2758 19.9293 19.4153 20.0007 19.5431 20.064C20.1465 20.3626 20.4785 20.4718 20.6842 20.4718V22.2311C19.9565 22.2311 19.2387 21.9004 18.6757 21.6217C18.5019 21.5357 18.3337 21.4497 18.1678 21.3647C17.725 21.1379 17.298 20.9194 16.8259 20.734C16.2007 20.4884 15.5878 20.3425 14.9602 20.3744C14.8689 20.3789 14.7758 20.3874 14.6807 20.4002L14.683 20.4236C14.7328 20.9951 14.4826 21.465 14.1604 21.8024C13.5658 22.4252 12.5972 22.7519 11.8695 22.8766C11.4904 22.9416 11.0826 22.9688 10.7236 22.9194C10.5479 22.8951 10.3213 22.8443 10.1078 22.7245C9.88077 22.5971 9.61174 22.3534 9.54278 21.9634C9.47864 21.6006 9.62348 21.3015 9.75006 21.1177C9.88062 20.928 10.0564 20.7641 10.2381 20.6224C10.5916 20.3464 11.1066 20.048 11.7947 19.7199L11.8449 19.6856C11.1949 19.3276 10.5707 19.2994 10.055 19.43Z" fill="white"/>
</svg>
