<svg width="21" height="14" viewBox="0 0 21 14" fill="none" xmlns="http://www.w3.org/2000/svg">
<path d="M10.3592 9.44643C9.93145 9.44643 9.51283 9.36657 9.11504 9.209L3.91813 7.14876C3.91813 8.29656 3.91813 10.0131 3.91813 10.4705C3.91813 12.0826 6.80172 13.3892 10.3593 13.3892C13.9169 13.3892 16.8008 12.0826 16.8008 10.4705V7.14865L11.6033 9.209C11.2055 9.36657 10.7869 9.44643 10.3592 9.44643Z" fill="white"/>
<path d="M20.3654 3.78324L11.2504 0.17015C10.678 -0.0567168 10.0404 -0.0567168 9.46782 0.17015L0.352937 3.78324C0.139848 3.86767 0 4.07372 0 4.30286C0 4.53211 0.139951 4.73805 0.352937 4.82258L1.62888 5.32832V8.94628C1.34546 9.13948 1.15931 9.46497 1.15931 9.83386C1.15931 10.1718 1.31551 10.4731 1.55947 10.67L1.1709 12.5353C1.11879 12.7856 1.18209 13.0462 1.34349 13.2444C1.50478 13.4428 1.74687 13.5579 2.00243 13.5579H2.46333C2.71899 13.5579 2.96098 13.4428 3.12227 13.2444C3.28357 13.0462 3.34686 12.7856 3.29486 12.5353L2.90617 10.67C3.15024 10.4731 3.30645 10.1717 3.30645 9.83386C3.30645 9.46486 3.1203 9.13948 2.83688 8.94628V5.80713L9.43871 8.42428C10.03 8.65871 10.6883 8.65871 11.2796 8.42428L20.3656 4.82258C20.5787 4.73816 20.7186 4.53211 20.7186 4.30286C20.7185 4.07372 20.5785 3.86767 20.3654 3.78324Z" fill="white"/>
</svg>
