<svg width="18" height="16" viewBox="0 0 18 16" fill="none" xmlns="http://www.w3.org/2000/svg">
<path d="M11.5466 5.93051L13.1915 6.52119C13.2288 6.53461 13.267 6.54097 13.3046 6.54097C13.4418 6.54097 13.5705 6.45591 13.6195 6.3194L14.0171 5.21231C14.0471 5.12877 14.0426 5.03676 14.0048 4.95654C13.9669 4.87627 13.8988 4.81434 13.8153 4.78434L12.1704 4.19365C11.9964 4.13108 11.8049 4.22157 11.7424 4.39544L11.3449 5.50254C11.3149 5.58607 11.3193 5.67808 11.3572 5.75831C11.395 5.83857 11.4631 5.90051 11.5466 5.93051ZM12.2591 4.9365L13.2742 5.30101L13.1027 5.77831L12.0877 5.4138L12.2591 4.9365Z" fill="white"/>
<path d="M4.09212 14.7267C4.28586 14.7267 4.44292 14.5696 4.44292 14.3759C4.44292 14.1822 4.28586 14.0251 4.09212 14.0251C3.89839 14.0251 3.74133 14.1822 3.74133 14.3759C3.74133 14.5696 3.89839 14.7267 4.09212 14.7267Z" fill="white"/>
<path d="M11.4308 8.81642L11.5239 8.7233C11.963 8.28421 12.4758 7.93952 13.0482 7.69877L15.2411 6.7764C15.2411 6.7764 15.8366 6.51959 15.9697 6.44419C16.1479 6.34319 16.3246 6.20411 16.5097 6.01894C17.5932 4.93545 17.6476 3.18841 16.6336 2.04161C16.5557 1.9535 16.4372 1.91268 16.3216 1.93432C16.206 1.95588 16.1102 2.03655 16.0692 2.14681L15.2701 4.29952L14.6738 4.07877L15.5141 1.79186C15.5547 1.68145 15.5343 1.55787 15.4604 1.46635C15.3866 1.37482 15.2701 1.32876 15.1536 1.34515C14.0226 1.50382 13.1034 2.30362 12.7787 3.37726L11.3986 2.86635C11.306 2.83208 11.203 2.84048 11.1171 2.88925C11.0313 2.93807 10.9713 3.02227 10.9534 3.11933L10.6358 4.83801C10.4872 5.64227 10.1393 6.38412 9.62305 7.00845L6.68568 4.07137L6.89453 3.86252C7.02521 3.73184 7.02521 3.52002 6.89453 3.38934L6.67382 3.16863C7.34663 2.34269 8.20732 2.30195 8.83318 2.42601C8.97114 2.4534 9.11163 2.39143 9.18445 2.27098C9.25728 2.15057 9.24702 1.99748 9.15873 1.88788C8.86329 1.52122 8.49577 1.23541 8.06654 1.03853C7.02892 0.561822 5.80491 0.718853 4.92146 1.41627L4.73878 1.23359C4.60811 1.10292 4.39628 1.10292 4.2656 1.23359L2.23398 3.26525C2.10424 3.39499 2.10316 3.605 2.23164 3.73605C2.34748 3.85423 2.29261 4.11435 2.11424 4.29272C1.93587 4.47109 1.67575 4.52596 1.55757 4.41012C1.42652 4.28164 1.21648 4.28272 1.08677 4.41246L0.0980049 5.40119C-0.0326683 5.53186 -0.0326683 5.74369 0.0980049 5.87436L2.25376 8.03012C2.31908 8.09543 2.40473 8.12811 2.49035 8.12811C2.57596 8.12811 2.66158 8.09543 2.72693 8.03012L3.7157 7.04135C3.84503 6.91202 3.84656 6.70279 3.71908 6.5716C3.6041 6.45327 3.6593 6.19348 3.83719 6.01559C4.01504 5.83774 4.27482 5.7825 4.39315 5.89749C4.52431 6.025 4.73357 6.02348 4.86291 5.89414L5.04764 5.70941L8.00063 8.6624L3.14899 13.514C2.90965 13.7533 2.77783 14.0715 2.77783 14.4101C2.77783 14.7485 2.90965 15.0668 3.14899 15.3061C3.39602 15.5532 3.72053 15.6767 4.04508 15.6767C4.36959 15.6767 4.69409 15.5531 4.94113 15.3061L9.79269 10.4545L15.0046 15.6664C15.0699 15.7317 15.1555 15.7644 15.2411 15.7644C15.3268 15.7644 15.4124 15.7317 15.4777 15.6664L16.6428 14.5013C16.7056 14.4386 16.7408 14.3535 16.7408 14.2647C16.7408 14.176 16.7056 14.0909 16.6428 14.0281L11.4308 8.81642ZM14.6612 2.17306L14.0463 3.84646L13.4085 3.61035C13.5921 2.96141 14.0555 2.43746 14.6612 2.17306ZM7.78738 1.64665C7.84114 1.6713 7.8936 1.69773 7.94482 1.72591C7.26506 1.81164 6.66895 2.14087 6.19905 2.69382L5.39884 1.89361C6.08161 1.39073 7.00268 1.28616 7.78738 1.64665ZM4.50223 1.94331L6.18481 3.62589L4.66216 5.14854L2.97958 3.46596L4.50223 1.94331ZM2.49035 7.32035L0.807766 5.63778L1.32336 5.12218L3.00594 6.80476L2.49035 7.32035ZM3.36398 5.54242C3.24312 5.66328 3.15156 5.79938 3.08862 5.94113L2.18878 5.04133C2.33042 4.97835 2.46644 4.88675 2.58734 4.76585C2.72251 4.63068 2.82166 4.47677 2.88434 4.31707L3.81291 5.24565C3.6531 5.30825 3.49911 5.40732 3.36398 5.54242ZM5.52074 5.23624L6.2125 4.54447L9.16564 7.49731L8.47373 8.18923L5.52074 5.23624ZM4.46795 14.8329C4.35498 14.9459 4.20478 15.0081 4.04504 15.0081C3.8853 15.0081 3.7351 14.9459 3.62216 14.8329C3.389 14.5997 3.389 14.2203 3.62216 13.9871L9.79064 7.81866C10.573 7.03629 11.0928 6.0476 11.2939 4.95958L11.5392 3.63192L15.3513 5.04315C15.5245 5.10728 15.7169 5.01891 15.7812 4.84578L16.4695 2.99149C16.8729 3.82727 16.7229 4.85946 16.0365 5.5458C15.8946 5.6877 15.7648 5.79113 15.6397 5.86202C15.562 5.90607 14.939 6.17753 14.939 6.17753L12.7887 7.08195C12.1361 7.35645 11.5513 7.74948 11.0507 8.25012L4.46795 14.8329ZM15.2411 14.9566L10.2659 9.98137L10.9576 9.28963L15.9331 14.2648L15.2411 14.9566Z" fill="white"/>
</svg>
